<svg width="19" height="16" viewBox="0 0 19 16" fill="none" xmlns="http://www.w3.org/2000/svg">
<path d="M16.7441 11.2666V2.86666C16.7441 2.37159 16.5533 1.8968 16.2136 1.54673C15.874 1.19667 15.4134 1 14.9331 1H4.06694C3.58663 1 3.12599 1.19667 2.78636 1.54673C2.44673 1.8968 2.25593 2.37159 2.25593 2.86666V11.2666M16.7441 11.2666H2.25593M16.7441 11.2666L17.9031 13.6466C17.9729 13.7894 18.006 13.9483 17.9991 14.108C17.9922 14.2678 17.9457 14.423 17.8638 14.5589C17.782 14.6947 17.6677 14.8066 17.5319 14.8839C17.3961 14.9611 17.2433 15.0011 17.0882 15H1.91183C1.75671 15.0011 1.60391 14.9611 1.46808 14.8839C1.33226 14.8066 1.21796 14.6947 1.13615 14.5589C1.05434 14.423 1.00777 14.2678 1.00089 14.108C0.994013 13.9483 1.02706 13.7894 1.09687 13.6466L2.25593 11.2666" stroke="#898989" stroke-width="2" stroke-linecap="round" stroke-linejoin="round"/>
</svg>
