<svg width="19" height="17" viewBox="0 0 19 17" fill="none" xmlns="http://www.w3.org/2000/svg">
<path d="M16.7441 11.7666V3.36666C16.7441 2.87159 16.5533 2.3968 16.2136 2.04673C15.874 1.69667 15.4134 1.5 14.9331 1.5H4.06694C3.58663 1.5 3.12599 1.69667 2.78636 2.04673C2.44673 2.3968 2.25593 2.87159 2.25593 3.36666V11.7666M16.7441 11.7666H2.25593M16.7441 11.7666L17.9031 14.1466C17.9729 14.2894 18.006 14.4483 17.9991 14.608C17.9922 14.7678 17.9457 14.923 17.8638 15.0589C17.782 15.1947 17.6677 15.3066 17.5319 15.3839C17.3961 15.4611 17.2433 15.5011 17.0882 15.5H1.91183C1.75671 15.5011 1.60391 15.4611 1.46808 15.3839C1.33226 15.3066 1.21796 15.1947 1.13615 15.0589C1.05434 14.923 1.00777 14.7678 1.00089 14.608C0.994013 14.4483 1.02706 14.2894 1.09687 14.1466L2.25593 11.7666" stroke="#D7D7D7" stroke-width="2" stroke-linecap="round" stroke-linejoin="round"/>
</svg>
