<svg width="17" height="17" viewBox="0 0 17 17" fill="none" xmlns="http://www.w3.org/2000/svg">
<path d="M14.1663 7.08329C14.1663 10.62 10.2429 14.3033 8.92538 15.4409C8.80265 15.5332 8.65324 15.5831 8.49967 15.5831C8.34611 15.5831 8.1967 15.5332 8.07397 15.4409C6.75647 14.3033 2.83301 10.62 2.83301 7.08329C2.83301 5.5804 3.43003 4.13906 4.49274 3.07635C5.55544 2.01365 6.99678 1.41663 8.49967 1.41663C10.0026 1.41663 11.4439 2.01365 12.5066 3.07635C13.5693 4.13906 14.1663 5.5804 14.1663 7.08329Z" stroke="#898989" stroke-width="2" stroke-linecap="round" stroke-linejoin="round"/>
<path d="M8.5 9.20837C9.6736 9.20837 10.625 8.25698 10.625 7.08337C10.625 5.90977 9.6736 4.95837 8.5 4.95837C7.32639 4.95837 6.375 5.90977 6.375 7.08337C6.375 8.25698 7.32639 9.20837 8.5 9.20837Z" stroke="#898989" stroke-width="2" stroke-linecap="round" stroke-linejoin="round"/>
</svg>
