<svg width="26" height="26" viewBox="0 0 26 26" fill="none" xmlns="http://www.w3.org/2000/svg">
<path d="M15.6673 3.25V2.75H15.1673H10.834H10.334V3.25V3.33333C10.334 3.34241 10.334 3.35148 10.334 3.36054C10.3339 3.57257 10.3339 3.77864 10.3567 3.94859C10.3825 4.14019 10.4453 4.35883 10.6269 4.54044C10.8085 4.72205 11.0271 4.78481 11.2187 4.81057C11.3887 4.83342 11.5947 4.83338 11.8068 4.83334C11.8158 4.83334 11.8249 4.83333 11.834 4.83333H14.1673C14.1764 4.83333 14.1855 4.83334 14.1945 4.83334C14.4066 4.83338 14.6126 4.83342 14.7826 4.81057C14.9742 4.78481 15.1928 4.72205 15.3744 4.54044C15.556 4.35883 15.6188 4.14019 15.6446 3.94859C15.6674 3.77864 15.6674 3.57257 15.6673 3.36054C15.6673 3.35148 15.6673 3.34241 15.6673 3.33333V3.25Z" stroke="#222222"/>
<rect x="7" y="2.66669" width="12" height="20.6667" rx="1.5" stroke="#222222"/>
<circle cx="12.9993" cy="19.5" r="1.08333" fill="#222222"/>
</svg>
