<svg width="26" height="26" viewBox="0 0 26 26" fill="none" xmlns="http://www.w3.org/2000/svg">
<path d="M16.4667 3.25C17.0382 3.25814 17.5833 3.49177 17.9833 3.9L22.1 8.01667C22.5082 8.4167 22.7419 8.96183 22.75 9.53333V20.5833C22.75 21.158 22.5217 21.7091 22.1154 22.1154C21.7091 22.5217 21.158 22.75 20.5833 22.75H5.41667C4.84203 22.75 4.29093 22.5217 3.8846 22.1154C3.47827 21.7091 3.25 21.158 3.25 20.5833V5.41667C3.25 4.84203 3.47827 4.29093 3.8846 3.8846C4.29093 3.47827 4.84203 3.25 5.41667 3.25H16.4667Z" stroke="white" stroke-width="2" stroke-linecap="round" stroke-linejoin="round"/>
<path d="M18.4163 22.7502V15.1668C18.4163 14.8795 18.3022 14.604 18.099 14.4008C17.8959 14.1976 17.6203 14.0835 17.333 14.0835H8.66634C8.37902 14.0835 8.10347 14.1976 7.90031 14.4008C7.69714 14.604 7.58301 14.8795 7.58301 15.1668V22.7502" stroke="white" stroke-width="2" stroke-linecap="round" stroke-linejoin="round"/>
<path d="M7.58301 3.25V7.58333C7.58301 7.87065 7.69714 8.1462 7.90031 8.34937C8.10347 8.55253 8.37902 8.66667 8.66634 8.66667H16.2497" stroke="white" stroke-width="2" stroke-linecap="round" stroke-linejoin="round"/>
</svg>
